HIERARCHY
ROOT Hips
{
	OFFSET 0.000000 0.000000 0.000000 
	CHANNELS 6 Xposition Yposition Zposition Zrotation Yrotation Xrotation
	JOINT LeftUpLeg
	{
		OFFSET 1.363060 -1.794630 0.839290 
		CHANNELS 3 Zrotation Yrotation Xrotation
		JOINT LeftLeg
		{
			OFFSET 2.448110 -6.726130 0.000000 
			CHANNELS 3 Zrotation Yrotation Xrotation
			JOINT LeftFoot
			{
				OFFSET 2.562200 -7.039590 0.000000 
				CHANNELS 3 Zrotation Yrotation Xrotation
				JOINT LeftToeBase
				{
					OFFSET 0.157640 -0.433110 2.322550 
					CHANNELS 3 Zrotation Yrotation Xrotation
					End Site
					{
						OFFSET 0.000000 0.000000 0.000000 
					}
				}
			}
		}
	}
	JOINT RightUpLeg
	{
		OFFSET -1.305520 -1.794630 0.839290 
		CHANNELS 3 Zrotation Yrotation Xrotation
		JOINT RightLeg
		{
			OFFSET -2.542530 -6.985550 0.000000 
			CHANNELS 3 Zrotation Yrotation Xrotation
			JOINT RightFoot
			{
				OFFSET -2.568260 -7.056230 0.000000 
				CHANNELS 3 Zrotation Yrotation Xrotation
				JOINT RightToeBase
				{
					OFFSET -0.164730 -0.452590 2.363150 
					CHANNELS 3 Zrotation Yrotation Xrotation
					End Site
					{
						OFFSET 0.000000 0.000000 0.000000 
					}
				}
			}
		}
	}
	JOINT Spine
	{
		OFFSET 0.028270 2.035590 -0.193380 
		CHANNELS 3 Zrotation Yrotation Xrotation
		JOINT Spine1
		{
			OFFSET 0.056720 2.048850 -0.042750 
			CHANNELS 3 Zrotation Yrotation Xrotation
			JOINT Neck1
			{
				OFFSET -0.054170 1.746240 0.172020 
				CHANNELS 3 Zrotation Yrotation Xrotation
				JOINT Head
				{
					OFFSET 0.104070 1.761360 -0.123970 
					CHANNELS 3 Zrotation Yrotation Xrotation
					End Site
					{
						OFFSET 0.000000 0.000000 0.000000 
					}
				}
			}
			JOINT LeftArm
			{
				OFFSET 3.362410 1.200890 -0.311210 
				CHANNELS 3 Zrotation Yrotation Xrotation
				JOINT LeftForeArm
				{
					OFFSET 4.983000 -0.000000 -0.000000 
					CHANNELS 3 Zrotation Yrotation Xrotation
					JOINT LeftHand
					{
						OFFSET 3.483560 -0.000000 -0.000000 
						CHANNELS 3 Zrotation Yrotation Xrotation
						JOINT LeftHandIndex1
						{
							OFFSET 0.715260 -0.000000 -0.000000 
							CHANNELS 3 Zrotation Yrotation Xrotation
							End Site
							{
								OFFSET 0.000000 0.000000 0.000000 
							}
						}
					}
				}
			}
			JOINT RightArm
			{
				OFFSET -3.136600 1.374050 -0.404650 
				CHANNELS 3 Zrotation Yrotation Xrotation
				JOINT RightForeArm
				{
					OFFSET -5.241900 -0.000000 -0.000000 
					CHANNELS 3 Zrotation Yrotation Xrotation
					JOINT RightHand
					{
						OFFSET -3.444170 -0.000000 -0.000000 
						CHANNELS 3 Zrotation Yrotation Xrotation
						JOINT RightHandIndex1
						{
							OFFSET -0.622530 -0.000000 -0.000000 
							CHANNELS 3 Zrotation Yrotation Xrotation
							End Site
							{
								OFFSET 0.000000 0.000000 0.000000 
							}
						}
					}
				}
			}
		}
	}
}
MOTION
Frames: 7
Frame Time: 0.041667
-0.644892 17.949239 -9.210117 -5.192137 1.324672 8.590578 -10.239614 -1.436931 -16.174555 0.899437 8.680583 25.829899 0.362137 -0.177049 -8.371553 0.311100 -3.585800 -9.914200 23.062972 5.382614 -17.143484 -1.939077 -8.551291 24.037180 0.885644 -9.006659 -9.006719 -0.336800 -3.729500 10.317000 7.728910 0.027632 1.251144 3.936298 0.041670 1.402566 -1.955167 1.900999 36.680343 -1.944800 0.968700 18.024300 -94.376971 -1.319011 34.772977 12.800118 -22.590934 -1.854916 1.486527 0.070194 -3.893991 -7.125000 0.000000 0.000000 84.885380 2.478844 25.521507 -13.204727 23.127772 -2.246389 -0.036426 0.246575 -6.589406 7.125000 0.000000 0.000000 
-0.630210 17.958662 -9.219144 -5.124546 1.584620 8.651271 -10.331153 -1.514638 -16.166177 0.850184 8.600846 25.584356 0.340797 -0.027099 -8.400775 0.480000 -4.443000 -12.326400 22.936156 5.194160 -17.264945 -1.922965 -8.524670 23.956289 0.848575 -8.813101 -9.290252 -0.492900 -4.501200 12.491300 7.775986 -0.109837 1.345034 4.070887 -0.025159 1.467734 -1.876900 1.898155 36.697743 -1.890900 0.960100 18.070300 -94.510846 -1.571393 34.537809 12.800968 -22.598726 -1.880346 1.463886 0.240252 -3.677946 -7.125000 0.000000 0.000000 84.881580 2.623222 25.389032 -13.208679 23.166154 -2.268953 -0.022760 0.214822 -6.046219 7.125000 0.000000 0.000000 
-0.611859 17.964912 -9.222319 -5.177392 1.667932 8.641664 -10.329086 -1.440396 -16.120007 0.824936 8.544449 25.421845 0.374498 -0.240182 -8.410349 0.472800 -4.410100 -12.233500 22.939513 4.991122 -17.283699 -1.908078 -8.498204 23.862859 0.829979 -8.684450 -9.252424 -0.484900 -4.465100 12.388900 7.843110 -0.167663 1.364652 4.113076 -0.053456 1.444251 -1.910388 1.922189 36.723692 -1.897800 0.959300 18.109100 -94.499595 -1.654180 34.638091 12.886292 -22.727818 -1.922593 1.426905 0.444658 -3.887832 -7.125000 0.000000 0.000000 84.894720 2.645928 25.508407 -13.179032 23.124043 -2.256239 -0.021194 0.220981 -6.111923 7.125000 0.000000 0.000000 
-0.591820 17.967590 -9.222616 -5.203072 1.508134 8.581465 -10.350610 -1.260597 -16.014909 0.808725 8.499120 25.296231 0.407812 -0.465207 -8.386493 0.377100 -3.944000 -10.919100 22.910669 4.883060 -17.195639 -1.893449 -8.473629 23.768440 0.800614 -8.472306 -9.147251 -0.514400 -4.597200 12.763000 7.547660 -0.071870 1.210279 3.958994 -0.012115 1.244330 -1.872324 1.869860 36.865427 -1.917300 0.972600 18.162900 -94.215276 -1.565178 34.859438 12.995411 -22.873084 -1.953564 1.369879 0.669088 -4.143792 -7.125000 0.000000 0.000000 85.144124 2.475534 25.352264 -13.129482 23.046174 -2.238782 -0.023063 0.222916 -5.715165 7.125000 0.000000 0.000000 
-0.579619 17.972550 -9.242258 -5.213966 1.657718 8.819891 -10.342064 -1.299710 -16.306969 0.789476 8.470413 25.182339 0.449031 -0.824621 -8.155330 0.286900 -3.444700 -9.519500 22.834509 4.846179 -17.526115 -1.885203 -8.432984 23.677893 0.821350 -8.550451 -8.884187 -0.508200 -4.569700 12.685100 7.811753 -0.149686 1.190073 4.209051 -0.048002 1.372031 -1.930692 1.925311 36.708948 -1.918300 0.970300 18.080300 -94.398493 -1.789984 34.931480 13.080401 -22.962661 -1.959244 1.284075 0.879717 -4.202856 -7.125000 0.000000 0.000000 85.053283 2.630022 25.191702 -13.104192 23.022254 -2.237966 -0.021083 0.210309 -5.323221 7.125000 0.000000 0.000000 
-0.565037 17.976518 -9.253368 -5.269991 1.643191 8.910956 -10.321156 -1.246767 -16.412588 0.780308 8.451384 25.115548 0.470755 -1.023786 -8.011796 0.249200 -3.212100 -8.869800 22.823370 4.797766 -17.628833 -1.872700 -8.396471 23.572313 0.837449 -8.608214 -8.621155 -0.463700 -4.368000 12.114400 7.930890 -0.106358 1.099297 4.332532 -0.028080 1.421669 -1.913498 1.858446 36.596599 -1.914600 0.942500 17.959100 -94.389365 -1.756047 35.166625 13.250078 -23.104459 -1.938662 1.024265 1.264199 -4.273083 -7.125000 0.000000 0.000000 85.053730 2.408892 25.236249 -13.248637 23.242159 -2.282545 -0.015578 0.216750 -5.699632 7.125000 0.000000 0.000000 
-0.552538 17.979197 -9.257038 -5.231456 1.617702 8.893384 -10.372576 -1.244547 -16.380675 0.783104 8.455197 25.128610 0.479283 -1.099145 -7.974909 0.290300 -3.464600 -9.575200 22.756570 4.685971 -17.574252 -1.850758 -8.358278 23.437656 0.846431 -8.659021 -8.547615 -0.449900 -4.303400 11.931800 7.756574 -0.011001 0.953882 4.368565 0.015179 1.346894 -1.843323 1.712508 36.618112 -1.925700 0.916800 17.903700 -94.150115 -1.600833 35.473073 13.371222 -23.285526 -1.978725 1.017484 1.278878 -4.412258 -7.125000 0.000000 0.000000 85.171484 1.914849 25.459231 -13.531034 23.664973 -2.381743 -0.021970 0.211911 -6.350908 7.125000 0.000000 0.000000 
